<svg width="33" height="24" viewBox="0 0 33 24" fill="none" xmlns="http://www.w3.org/2000/svg">
<g filter="url(#filter0_i_113_45)">
<path d="M27.9697 2.66148C25.1601 0.400519 20.7154 0.0172641 20.5251 0.00347154C20.2301 -0.0213465 19.9488 0.144093 19.8275 0.417064C19.8165 0.433609 19.72 0.656944 19.6125 1.00436C21.4709 1.31869 23.7539 1.9501 25.8191 3.23224C26.1499 3.43627 26.252 3.87192 26.0479 4.2028C25.9128 4.42062 25.684 4.53918 25.4468 4.53918C25.32 4.53918 25.1904 4.50334 25.0746 4.43165C21.5232 2.22859 17.0896 2.1183 16.2348 2.1183C15.3801 2.1183 10.9436 2.22859 7.395 4.43165C7.06412 4.63845 6.62847 4.53643 6.42444 4.20556C6.21764 3.87192 6.31966 3.43903 6.65053 3.23224C8.71573 1.95286 10.9987 1.31869 12.8571 1.00712C12.7496 0.656951 12.6531 0.436369 12.6448 0.417064C12.5208 0.144093 12.2423 -0.0268593 11.9445 0.00347154C11.7542 0.017257 7.30952 0.400519 4.46126 2.69181C2.97509 4.06769 0 12.1079 0 19.059C0 19.183 0.0330907 19.3016 0.0937453 19.4091C2.14515 23.0156 7.74517 23.9586 9.02179 24C9.0273 24 9.03557 24 9.04385 24C9.26994 24 9.48225 23.8925 9.6146 23.7105L10.905 21.9348C7.42257 21.0359 5.64414 19.5084 5.54211 19.4174C5.24984 19.161 5.22227 18.7143 5.48145 18.422C5.73787 18.1298 6.18455 18.1022 6.47683 18.3586C6.51818 18.3972 9.79382 21.1765 16.2348 21.1765C22.6868 21.1765 25.9625 18.3862 25.9955 18.3586C26.2878 18.105 26.7317 18.1298 26.9909 18.4248C27.2473 18.7171 27.2198 19.161 26.9275 19.4174C26.8255 19.5084 25.0471 21.0359 21.5646 21.9348L22.855 23.7105C22.9874 23.8925 23.1997 24 23.4258 24C23.434 24 23.4423 24 23.4478 24C24.7244 23.9586 30.3245 23.0157 32.3759 19.4091C32.4365 19.3016 32.4696 19.183 32.4696 19.059C32.4696 12.1079 29.4945 4.06769 27.9697 2.66148ZM11.6467 16.2355C10.2819 16.2355 9.17619 14.9727 9.17619 13.4121C9.17619 11.8515 10.2819 10.5886 11.6467 10.5886C13.0115 10.5886 14.1172 11.8515 14.1172 13.4121C14.1172 14.9727 13.0115 16.2355 11.6467 16.2355ZM20.8229 16.2355C19.458 16.2355 18.3524 14.9727 18.3524 13.4121C18.3524 11.8515 19.458 10.5886 20.8229 10.5886C22.1877 10.5886 23.2934 11.8515 23.2934 13.4121C23.2934 14.9727 22.1877 16.2355 20.8229 16.2355Z" fill="white"/>
</g>
<defs>
<filter id="filter0_i_113_45" x="0" y="-0.25" width="32.4696" height="24.25" filterUnits="userSpaceOnUse" color-interpolation-filters="sRGB">
<feFlood flood-opacity="0" result="BackgroundImageFix"/>
<feBlend mode="normal" in="SourceGraphic" in2="BackgroundImageFix" result="shape"/>
<feColorMatrix in="SourceAlpha" type="matrix" values="0 0 0 0 0 0 0 0 0 0 0 0 0 0 0 0 0 0 127 0" result="hardAlpha"/>
<feOffset dy="-0.75"/>
<feGaussianBlur stdDeviation="0.125"/>
<feComposite in2="hardAlpha" operator="arithmetic" k2="-1" k3="1"/>
<feColorMatrix type="matrix" values="0 0 0 0 0 0 0 0 0 0 0 0 0 0 0 0 0 0 0.38 0"/>
<feBlend mode="normal" in2="shape" result="effect1_innerShadow_113_45"/>
</filter>
</defs>
</svg>
