<svg width="24" height="24" viewBox="0 0 24 24" fill="none" xmlns="http://www.w3.org/2000/svg">
<g filter="url(#filter0_i_112_4)">
<path d="M7.63636 12C7.63636 10.8427 8.0961 9.73283 8.91444 8.91449C9.73278 8.09615 10.8427 7.63641 12 7.63641C13.1573 7.63641 14.2672 8.09615 15.0856 8.91449C15.9039 9.73283 16.3636 10.8427 16.3636 12C16.3636 13.1574 15.9039 14.2673 15.0856 15.0856C14.2672 15.9039 13.1573 16.3637 12 16.3637C10.8427 16.3637 9.73278 15.9039 8.91444 15.0856C8.0961 14.2673 7.63636 13.1574 7.63636 12Z" fill="white"/>
<path d="M12.0545 0C14.0476 0 15.6175 2.98023e-08 16.8764 0.114545C18.1615 0.230182 19.2284 0.472364 20.1818 1.02327C21.3426 1.69348 22.3065 2.6574 22.9767 3.81818C23.5276 4.77164 23.7698 5.83855 23.8855 7.12364C24 8.38255 24 9.95236 24 11.9455V12.0545C24 14.0476 24 15.6175 23.8855 16.8764C23.7698 18.1615 23.5276 19.2284 22.9767 20.1818C22.3065 21.3426 21.3426 22.3065 20.1818 22.9767C19.2284 23.5276 18.1615 23.7698 16.8764 23.8855C15.6175 24 14.0476 24 12.0545 24H11.9455C9.95236 24 8.38255 24 7.12364 23.8855C5.83855 23.7698 4.77164 23.5276 3.81818 22.9767C2.6574 22.3065 1.69348 21.3426 1.02327 20.1818C0.472364 19.2284 0.230182 18.1615 0.114545 16.8764C2.98023e-08 15.6175 0 14.0476 0 12.0545V11.9455C0 9.95236 2.98023e-08 8.38255 0.114545 7.12364C0.230182 5.83855 0.472364 4.77164 1.02327 3.81818C1.69348 2.6574 2.6574 1.69348 3.81818 1.02327C4.77164 0.472364 5.83855 0.230182 7.12364 0.114545C8.38255 2.98023e-08 9.95236 0 11.9455 0H12.0545ZM18.8182 4.09091C18.5289 4.09091 18.2514 4.20584 18.0468 4.41043C17.8422 4.61501 17.7273 4.89249 17.7273 5.18182V5.18618C17.7273 5.47551 17.8422 5.75299 18.0468 5.95757C18.2514 6.16216 18.5289 6.27709 18.8182 6.27709H18.8225C19.1119 6.27709 19.3893 6.16216 19.5939 5.95757C19.7985 5.75299 19.9135 5.47551 19.9135 5.18618V5.18182C19.9135 4.89249 19.7985 4.61501 19.5939 4.41043C19.3893 4.20584 19.1119 4.09091 18.8225 4.09091H18.8182ZM12 5.45455C10.264 5.45455 8.59918 6.14415 7.37167 7.37167C6.14415 8.59918 5.45455 10.264 5.45455 12C5.45455 13.736 6.14415 15.4008 7.37167 16.6283C8.59918 17.8558 10.264 18.5455 12 18.5455C13.736 18.5455 15.4008 17.8558 16.6283 16.6283C17.8558 15.4008 18.5455 13.736 18.5455 12C18.5455 10.264 17.8558 8.59918 16.6283 7.37167C15.4008 6.14415 13.736 5.45455 12 5.45455Z" fill="white"/>
</g>
<defs>
<filter id="filter0_i_112_4" x="0" y="-0.25" width="24" height="24.25" filterUnits="userSpaceOnUse" color-interpolation-filters="sRGB">
<feFlood flood-opacity="0" result="BackgroundImageFix"/>
<feBlend mode="normal" in="SourceGraphic" in2="BackgroundImageFix" result="shape"/>
<feColorMatrix in="SourceAlpha" type="matrix" values="0 0 0 0 0 0 0 0 0 0 0 0 0 0 0 0 0 0 127 0" result="hardAlpha"/>
<feOffset dy="-0.75"/>
<feGaussianBlur stdDeviation="0.125"/>
<feComposite in2="hardAlpha" operator="arithmetic" k2="-1" k3="1"/>
<feColorMatrix type="matrix" values="0 0 0 0 0 0 0 0 0 0 0 0 0 0 0 0 0 0 0.38 0"/>
<feBlend mode="normal" in2="shape" result="effect1_innerShadow_112_4"/>
</filter>
</defs>
</svg>
