<svg width="23" height="24" viewBox="0 0 23 24" fill="none" xmlns="http://www.w3.org/2000/svg">
<g filter="url(#filter0_i_81_102)">
<path fill-rule="evenodd" clip-rule="evenodd" d="M0 11.1999C0 4.9896 5.1734 0 11.5 0C17.8266 0 23 4.9896 23 11.1999C23 17.4102 17.8266 22.4008 11.5 22.4008C10.4489 22.4021 9.40228 22.2624 8.38698 21.9852L6.18326 23.6739C5.1413 24.4724 3.65539 23.7132 3.65539 22.3867V19.3901C1.40995 17.3502 0 14.4376 0 11.1999ZM5.88372 14.3176L8.90902 12.7751C9.05013 12.703 9.20512 12.6637 9.36288 12.66C9.52064 12.6562 9.67727 12.688 9.82153 12.7533L13.2983 14.3296C13.539 14.4387 13.8108 14.4534 14.0614 14.3708C14.3121 14.2883 14.5242 14.1144 14.6569 13.8823L17.4661 8.97234C17.4954 8.92157 17.5078 8.8625 17.5014 8.80396C17.495 8.74542 17.4702 8.69057 17.4307 8.64759C17.3912 8.60461 17.3391 8.57583 17.2823 8.56555C17.2254 8.55526 17.1668 8.56403 17.1152 8.59054L14.091 10.133C13.9499 10.2051 13.7949 10.2444 13.6371 10.2481C13.4794 10.2519 13.3227 10.2201 13.1785 10.1548L9.70172 8.57854C9.46099 8.46943 9.18925 8.45473 8.93855 8.53726C8.68785 8.61978 8.47583 8.79374 8.34312 9.02579L5.53391 13.9358C5.50462 13.9865 5.49224 14.0456 5.49862 14.1041C5.505 14.1627 5.52979 14.2175 5.56928 14.2605C5.60878 14.3035 5.66086 14.3323 5.71773 14.3426C5.7746 14.3528 5.83214 14.3441 5.88372 14.3176Z" fill="white"/>
</g>
<defs>
<filter id="filter0_i_81_102" x="0" y="-0.25" width="23" height="24.25" filterUnits="userSpaceOnUse" color-interpolation-filters="sRGB">
<feFlood flood-opacity="0" result="BackgroundImageFix"/>
<feBlend mode="normal" in="SourceGraphic" in2="BackgroundImageFix" result="shape"/>
<feColorMatrix in="SourceAlpha" type="matrix" values="0 0 0 0 0 0 0 0 0 0 0 0 0 0 0 0 0 0 127 0" result="hardAlpha"/>
<feOffset dy="-0.75"/>
<feGaussianBlur stdDeviation="0.125"/>
<feComposite in2="hardAlpha" operator="arithmetic" k2="-1" k3="1"/>
<feColorMatrix type="matrix" values="0 0 0 0 0 0 0 0 0 0 0 0 0 0 0 0 0 0 0.38 0"/>
<feBlend mode="normal" in2="shape" result="effect1_innerShadow_81_102"/>
</filter>
</defs>
</svg>
