<svg width="24" height="24" viewBox="0 0 24 24" fill="none" xmlns="http://www.w3.org/2000/svg">
<g filter="url(#filter0_i_113_38)">
<path d="M23.357 17.5864C20.3287 17.0559 18.945 13.7236 18.9002 13.6153C18.8941 13.5958 18.8798 13.5612 18.8716 13.5417C18.7799 13.3468 18.6882 13.0718 18.7657 12.8769C18.8981 12.5435 19.5278 12.3313 19.9048 12.2035C20.0373 12.1581 20.1637 12.1169 20.2615 12.0758C21.1765 11.6904 21.633 11.188 21.6228 10.5774C21.6146 10.0859 21.26 9.63551 20.7383 9.44063C20.557 9.35835 20.3491 9.31721 20.1392 9.31721C19.9965 9.31721 19.7805 9.33886 19.5727 9.44063C19.2242 9.61385 18.9185 9.70696 18.7005 9.71779C18.6536 9.71562 18.6128 9.71129 18.5782 9.70479L18.6006 9.3237C18.7025 7.60014 18.8309 5.45218 18.2827 4.14652C16.6647 0.298808 13.237 0 12.2242 0L11.7636 0.00432924C10.7528 0.00432924 7.33125 0.303137 5.71726 4.14868C5.16908 5.45434 5.29542 7.60014 5.39936 9.32587L5.40343 9.39083C5.40954 9.49693 5.41566 9.60302 5.42177 9.70479C5.19557 9.7481 4.75335 9.66798 4.29483 9.44063C3.67125 9.131 2.54838 9.54023 2.39351 10.4063C2.32422 10.7896 2.40777 11.5171 3.73646 12.0736C3.83632 12.1169 3.96063 12.1581 4.09512 12.2035C4.47009 12.3313 5.09979 12.5413 5.23225 12.8769C5.30969 13.0718 5.21799 13.3468 5.10998 13.5828C5.05293 13.7236 3.67737 17.0559 0.642989 17.5864C0.255794 17.6536 -0.0193157 18.0173 0.00106159 18.4374C0.00717582 18.5478 0.0336673 18.6582 0.0764617 18.7665C0.351571 19.4529 1.35216 19.9249 3.21885 20.2476C3.25145 20.3645 3.28813 20.5377 3.30852 20.633C3.34724 20.83 3.39003 21.0292 3.44709 21.2371C3.50212 21.4341 3.69164 21.891 4.28261 21.891C4.46195 21.891 4.65758 21.8499 4.86748 21.8066C5.17723 21.7416 5.56443 21.6615 6.06167 21.6615C6.33881 21.6615 6.62412 21.6875 6.91146 21.7373C7.4413 21.8304 7.9202 22.192 8.47653 22.6077C9.34466 23.2616 10.329 24 11.8553 24C11.8961 24 11.9368 23.9978 11.9755 23.9957C12.0306 23.9978 12.0876 24 12.1447 24C13.671 24 14.6553 23.2595 15.5255 22.6077C16.0553 22.2071 16.5567 21.8325 17.0885 21.7373C17.3759 21.6875 17.6612 21.6615 17.9383 21.6615C18.4172 21.6615 18.7963 21.7265 19.1346 21.7979C19.375 21.8477 19.5666 21.8715 19.7439 21.8715C20.1392 21.8715 20.4429 21.6312 20.5529 21.2284C20.61 21.0249 20.6507 20.8279 20.6915 20.6286C20.7078 20.555 20.7465 20.3688 20.7812 20.2454C22.6478 19.9228 23.6484 19.4507 23.9215 18.7708C23.9663 18.6626 23.9908 18.55 23.9989 18.4331C24.0193 18.0195 23.7442 17.6557 23.357 17.5864Z" fill="white"/>
</g>
<defs>
<filter id="filter0_i_113_38" x="0" y="-0.25" width="24" height="24.25" filterUnits="userSpaceOnUse" color-interpolation-filters="sRGB">
<feFlood flood-opacity="0" result="BackgroundImageFix"/>
<feBlend mode="normal" in="SourceGraphic" in2="BackgroundImageFix" result="shape"/>
<feColorMatrix in="SourceAlpha" type="matrix" values="0 0 0 0 0 0 0 0 0 0 0 0 0 0 0 0 0 0 127 0" result="hardAlpha"/>
<feOffset dy="-0.75"/>
<feGaussianBlur stdDeviation="0.125"/>
<feComposite in2="hardAlpha" operator="arithmetic" k2="-1" k3="1"/>
<feColorMatrix type="matrix" values="0 0 0 0 0 0 0 0 0 0 0 0 0 0 0 0 0 0 0.38 0"/>
<feBlend mode="normal" in2="shape" result="effect1_innerShadow_113_38"/>
</filter>
</defs>
</svg>
