<svg width="24" height="24" viewBox="0 0 24 24" fill="none" xmlns="http://www.w3.org/2000/svg">
<g filter="url(#filter0_i_113_32)">
<path d="M12 0C5.38329 0 0 5.38328 0 12C0 18.6167 5.38329 24 12 24C18.6167 24 24 18.6172 24 12C24 5.38276 18.6167 0 12 0ZM17.0792 17.3937C16.9285 17.6201 16.6803 17.7421 16.4273 17.7421C16.2782 17.7421 16.1274 17.6999 15.9939 17.6107C14.7042 16.7507 12.5168 16.177 10.6915 16.1775C8.75449 16.1785 7.30253 16.6542 7.28793 16.6589C6.87905 16.7976 6.43522 16.5744 6.29858 16.1645C6.16194 15.7545 6.38359 15.3112 6.79352 15.1751C6.86236 15.1522 8.50363 14.6145 10.6915 14.6134C12.5168 14.6124 15.0557 15.1047 16.8623 16.3089C17.2221 16.5488 17.3191 17.0344 17.0792 17.3937ZM18.6397 14.1915C18.4702 14.4637 18.1776 14.6134 17.8787 14.6134C17.7171 14.6134 17.5533 14.5701 17.4062 14.4778C15.0677 13.0206 12.6644 12.7124 10.5939 12.7307C8.25642 12.7515 6.38724 13.1974 6.35543 13.2068C5.88239 13.3414 5.38485 13.065 5.24977 12.5899C5.11469 12.1137 5.39163 11.6188 5.86727 11.4842C6.01173 11.443 7.87726 10.984 10.4312 10.9627C12.7599 10.9434 15.6617 11.2808 18.3539 12.9581C18.7727 13.2188 18.9015 13.7717 18.6397 14.1915ZM20.1964 10.4469C20.0019 10.7775 19.6535 10.9616 19.2958 10.9616C19.1163 10.9616 18.9348 10.9152 18.7685 10.8182C16.0429 9.21813 12.7291 8.87861 10.4291 8.87548C10.4182 8.87548 10.4072 8.87548 10.3963 8.87548C7.61493 8.87548 5.47299 9.36468 5.45161 9.3699C4.88939 9.49872 4.32978 9.15137 4.1994 8.5902C4.06902 8.02955 4.41688 7.46942 4.97753 7.33852C5.07401 7.31609 7.36251 6.78934 10.3963 6.78934C10.4083 6.78934 10.4203 6.78934 10.4323 6.78934C12.9904 6.79299 16.6964 7.18206 19.8251 9.0189C20.3216 9.31096 20.488 9.95037 20.1964 10.4469Z" fill="white"/>
</g>
<defs>
<filter id="filter0_i_113_32" x="0" y="-0.25" width="24" height="24.25" filterUnits="userSpaceOnUse" color-interpolation-filters="sRGB">
<feFlood flood-opacity="0" result="BackgroundImageFix"/>
<feBlend mode="normal" in="SourceGraphic" in2="BackgroundImageFix" result="shape"/>
<feColorMatrix in="SourceAlpha" type="matrix" values="0 0 0 0 0 0 0 0 0 0 0 0 0 0 0 0 0 0 127 0" result="hardAlpha"/>
<feOffset dy="-0.75"/>
<feGaussianBlur stdDeviation="0.125"/>
<feComposite in2="hardAlpha" operator="arithmetic" k2="-1" k3="1"/>
<feColorMatrix type="matrix" values="0 0 0 0 0 0 0 0 0 0 0 0 0 0 0 0 0 0 0.38 0"/>
<feBlend mode="normal" in2="shape" result="effect1_innerShadow_113_32"/>
</filter>
</defs>
</svg>
