<svg width="58" height="521" viewBox="0 0 58 521" fill="none" xmlns="http://www.w3.org/2000/svg">
<path d="M10.624 39.808H27.008V46.464H0V40.832C0 26.176 16.384 19.648 16.384 10.56C16.384 8.32 15.36 7.296 13.504 7.296C11.648 7.296 10.624 8.32 10.624 10.56V17.152H0V12.16C0 1.088 7.808 0 13.824 0C19.904 0 27.008 2.432 27.008 12.032C27.008 22.528 17.088 27.2 12.288 35.392C11.456 36.864 10.624 37.952 10.624 39.808Z" fill="white"/>
<path d="M46.3275 36.992V10.368C46.3275 8.128 45.1115 7.296 43.4475 7.296C41.7835 7.296 40.6315 8.128 40.6315 10.368V36.992C40.6315 39.232 41.7835 40.064 43.4475 40.064C45.1115 40.064 46.3275 39.232 46.3275 36.992ZM56.9515 13.312V34.944C56.9515 43.648 51.7035 47.36 43.5115 47.36C35.4475 47.36 30.0075 43.648 30.0075 34.944V13.312C30.0075 2.56 37.6875 0 43.6395 0C50.8715 0 56.9515 2.56 56.9515 13.312Z" fill="white"/>
<path d="M1.792 91.672V85.016C5.376 85.016 10.176 83.928 10.944 79.896H19.904V125.464H9.28V91.672H1.792Z" fill="white"/>
<path d="M30.0715 109.336H40.6955V115.032C40.6955 117.208 41.0795 119.064 43.5115 119.064C45.8795 119.064 46.2635 117.208 46.2635 115.032V104.216C44.0235 106.072 41.9755 107.224 38.8395 107.224C33.9755 107.224 30.0715 104.216 30.0715 98.392V90.776C30.0715 82.072 36.9835 79 42.8075 79C51.7035 79 56.8875 82.84 56.8875 91.864V115.352C56.8875 123.032 49.9115 126.36 43.0635 126.36C34.6795 126.36 30.0715 122.84 30.0715 115.032V109.336ZM43.1915 98.904C45.1755 98.904 46.2635 97.816 46.2635 96.344V88.28C46.2635 87.192 45.3675 86.296 43.3835 86.296C41.5915 86.296 40.6955 87.192 40.6955 88.408V96.6C40.6955 97.944 41.3995 98.904 43.1915 98.904Z" fill="white"/>
<path d="M1.792 170.672V164.016C5.376 164.016 10.176 162.928 10.944 158.896H19.904V204.464H9.28V170.672H1.792Z" fill="white"/>
<path d="M57.2715 189.936V193.84C57.2715 201.904 50.8075 205.36 43.1915 205.36C35.0635 205.36 29.7515 201.52 29.7515 193.584V188.656C29.7515 184.112 33.0795 181.296 36.8555 180.72V180.464C33.3355 179.824 29.7515 177.2 29.7515 172.336V168.88C29.7515 160.176 38.0075 158 43.8315 158C50.6155 158 57.2715 160.432 57.2715 168.752V172.784C57.2715 176.304 54.0075 179.696 50.1035 180.464V180.72C53.8795 181.552 57.2715 182.704 57.2715 189.936ZM40.3755 187.44V195.632C40.3755 197.616 41.7835 198.064 43.6395 198.064C45.5595 198.064 46.6475 197.552 46.6475 195.632V187.504C46.6475 185.584 45.7515 184.432 43.4475 184.432C41.0795 184.432 40.3755 185.712 40.3755 187.44ZM40.3755 168.304V175.088C40.3755 177.328 41.5915 177.776 43.4475 177.776C45.3675 177.776 46.6475 177.392 46.6475 174.832V168.368C46.6475 166.256 45.6875 165.296 43.5115 165.296C41.3355 165.296 40.3755 166.576 40.3755 168.304Z" fill="white"/>
<path d="M1.792 249.672V243.016C5.376 243.016 10.176 241.928 10.944 237.896H19.904V283.464H9.28V249.672H1.792Z" fill="white"/>
<path d="M45.9435 244.552H29.2395V237.896H57.2715V244.36L42.2955 283.464H30.9675L45.9435 244.552Z" fill="white"/>
<path d="M1.792 328.672V322.016C5.376 322.016 10.176 320.928 10.944 316.896H19.904V362.464H9.28V328.672H1.792Z" fill="white"/>
<path d="M56.8875 333.024H46.2635V327.328C46.2635 325.152 45.8795 323.296 43.4475 323.296C41.0795 323.296 40.6955 325.152 40.6955 327.328V338.144C42.9355 336.288 44.9835 335.136 48.1195 335.136C52.9835 335.136 56.8875 338.144 56.8875 343.968V351.584C56.8875 360.288 49.9755 363.36 44.1515 363.36C35.2555 363.36 30.0715 359.52 30.0715 350.496V327.008C30.0715 319.328 37.0475 316 43.8955 316C52.2795 316 56.8875 319.52 56.8875 327.328V333.024ZM43.7675 343.456C41.7835 343.456 40.6955 344.544 40.6955 346.016V354.08C40.6955 355.168 41.5915 356.064 43.5755 356.064C45.3675 356.064 46.2635 355.168 46.2635 353.952V345.76C46.2635 344.416 45.5595 343.456 43.7675 343.456Z" fill="white"/>
<path d="M1.792 407.672V401.016C5.376 401.016 10.176 399.928 10.944 395.896H19.904V441.464H9.28V407.672H1.792Z" fill="white"/>
<path d="M29.9435 423.352H40.5675V431.544C40.5675 433.656 41.6555 435.064 43.4475 435.064C45.2395 435.064 46.3915 433.656 46.3915 431.544V420.216C46.3915 418.104 45.3035 416.696 43.5115 416.696C42.1035 416.696 40.5675 418.488 40.5675 419.896H29.9435V395.896H56.6955V402.552H40.0555C39.9275 405.432 39.7355 408.312 39.6075 411.192H39.7355C42.4235 408.888 45.0475 408.056 47.6715 408.056C53.1755 408.056 57.0155 411.384 57.0155 418.808V429.432C57.0155 439.288 50.3595 442.36 43.4475 442.36C36.1515 442.36 29.9435 438.648 29.9435 432.056V423.352Z" fill="white"/>
<path d="M29.008 499.92V513.936C34.704 514.448 34.64 511.184 34.64 506.448C34.64 499.984 33.488 499.92 29.008 499.92ZM18.384 520.464V474.896H29.136C38.16 474.896 45.264 475.024 45.264 485.968C45.264 491.024 43.792 495.568 37.712 496.144V496.592C44.496 496.592 45.264 501.584 45.264 507.472C45.264 520.016 40.4 520.464 29.136 520.464H18.384ZM29.008 481.424V493.392C32.336 493.2 34.64 494.288 34.64 487.44C34.64 482.96 34.256 481.104 29.008 481.424Z" fill="white"/>
</svg>
