<svg width="56" height="17" viewBox="0 0 56 17" fill="none" xmlns="http://www.w3.org/2000/svg">
<g filter="url(#filter0_i_138_30)">
<path d="M25.5 0H8.5C3.80558 0 0 3.80558 0 8.5C0 13.1944 3.80558 17 8.5 17H25.5C30.1944 17 34 13.1944 34 8.5C34 3.80558 30.1944 0 25.5 0Z" fill="#2B2B2B"/>
</g>
<path d="M37.5352 1.78125V16H35.6504V1.78125H37.5352ZM43.4922 8.1777V9.7207H37.125V8.1777H43.4922ZM44.459 1.78125V3.32422H37.125V1.78125H44.459ZM48.5898 1.78125V16H46.7051V1.78125H48.5898ZM54.5469 8.1777V9.7207H48.1797V8.1777H54.5469ZM55.5137 1.78125V3.32422H48.1797V1.78125H55.5137Z" fill="#747474"/>
<defs>
<filter id="filter0_i_138_30" x="0" y="0" width="35" height="18" filterUnits="userSpaceOnUse" color-interpolation-filters="sRGB">
<feFlood flood-opacity="0" result="BackgroundImageFix"/>
<feBlend mode="normal" in="SourceGraphic" in2="BackgroundImageFix" result="shape"/>
<feColorMatrix in="SourceAlpha" type="matrix" values="0 0 0 0 0 0 0 0 0 0 0 0 0 0 0 0 0 0 127 0" result="hardAlpha"/>
<feOffset dx="1" dy="1"/>
<feGaussianBlur stdDeviation="0.65"/>
<feComposite in2="hardAlpha" operator="arithmetic" k2="-1" k3="1"/>
<feColorMatrix type="matrix" values="0 0 0 0 0 0 0 0 0 0 0 0 0 0 0 0 0 0 0.35 0"/>
<feBlend mode="normal" in2="shape" result="effect1_innerShadow_138_30"/>
</filter>
</defs>
</svg>
